<svg xmlns="http://www.w3.org/2000/svg" xmlns:xlink="http://www.w3.org/1999/xlink" width="322" zoomAndPan="magnify" viewBox="0 0 241.5 227.249992" height="303" preserveAspectRatio="xMidYMid meet" version="1.0"><defs><g/><clipPath id="4971919a6c"><path d="M 126 0.632812 L 240.832031 0.632812 L 240.832031 226.421875 L 126 226.421875 Z M 126 0.632812 " clip-rule="nonzero"/></clipPath><clipPath id="53cd84f968"><path d="M 0.277344 0.632812 L 115 0.632812 L 115 226.421875 L 0.277344 226.421875 Z M 0.277344 0.632812 " clip-rule="nonzero"/></clipPath></defs><g clip-path="url(#4971919a6c)"><path fill="#00bf63" d="M 174.199219 12.765625 C 169.789062 5.507812 160.996094 0.644531 151.910156 0.644531 C 138.09375 0.644531 126.777344 11.964844 126.777344 25.78125 C 126.777344 84.222656 126.777344 142.664062 126.777344 201.082031 C 126.777344 214.898438 138.09375 226.214844 151.910156 226.214844 C 165 226.214844 175.839844 216.058594 176.964844 203.230469 C 179.359375 203.847656 180.945312 203.90625 180.96875 203.90625 C 182.746094 204.257812 184.597656 204.445312 186.480469 204.445312 C 202.476562 204.445312 215.433594 191.488281 215.433594 175.492188 C 215.433594 172.667969 215.027344 169.953125 214.277344 167.402344 C 229.953125 160.4375 240.808594 147.214844 240.808594 129.011719 C 240.808594 119.066406 237.234375 109.957031 231.316406 102.910156 C 234.03125 97.746094 235.832031 91.914062 235.832031 86.054688 C 235.832031 69.011719 222.015625 55.195312 204.96875 55.195312 C 204.324219 55.195312 203.679688 55.222656 203.058594 55.246094 C 204.511719 51.671875 205.316406 47.75 205.316406 43.632812 C 205.332031 26.050781 191.539062 12.203125 174.199219 12.765625 Z M 156.589844 109.921875 C 162.933594 109.921875 168.097656 115.085938 168.097656 121.429688 C 168.097656 127.800781 162.933594 132.933594 156.589844 132.933594 C 152.421875 132.933594 148.792969 130.761719 146.777344 127.449219 C 134.519531 133.390625 133.605469 154.332031 133.550781 158.65625 L 133.550781 201.082031 C 133.550781 211.132812 141.828125 219.414062 151.910156 219.414062 C 161.484375 219.414062 169.542969 211.917969 170.21875 202.371094 L 170.324219 200.703125 C 165.59375 198.230469 160.269531 193.851562 156.667969 186.078125 L 156.636719 186.078125 C 150.265625 186.078125 145.132812 180.945312 145.132812 174.574219 C 145.132812 168.230469 150.265625 163.066406 156.636719 163.066406 C 162.980469 163.066406 168.117188 168.230469 168.117188 174.574219 C 168.117188 177.824219 166.773438 180.757812 164.621094 182.851562 C 175.617188 206.261719 208.628906 200.378906 208.628906 175.484375 C 208.628906 173.570312 208.386719 171.667969 207.902344 169.808594 C 202.765625 171.449219 198.707031 171.960938 191.476562 171.773438 C 189.488281 175.265625 185.75 177.632812 181.445312 177.632812 C 175.101562 177.632812 169.941406 172.5 169.941406 166.128906 C 169.941406 159.785156 175.074219 154.621094 181.445312 154.621094 C 187.007812 154.621094 191.632812 158.570312 192.710938 163.8125 C 205.023438 164.324219 216.796875 158.4375 217.417969 158.113281 C 227.578125 152.09375 234.007812 141.097656 234.007812 129 C 234.007812 121.742188 231.722656 114.75 227.449219 108.96875 C 223.683594 113.941406 218.011719 119.128906 209.839844 121.660156 C 208.65625 126.742188 204.089844 130.503906 198.65625 130.503906 C 192.3125 130.503906 187.148438 125.339844 187.148438 119 C 187.148438 112.65625 192.3125 107.492188 198.65625 107.492188 C 202.769531 107.492188 206.347656 109.644531 208.386719 112.867188 C 221.746094 107.597656 227.367188 94.828125 227.578125 94.34375 C 228.546875 91.710938 229.054688 88.886719 229.054688 86.039062 C 229.054688 72.730469 218.277344 61.980469 204.96875 61.980469 C 204.484375 61.980469 203.972656 61.980469 203.464844 62.007812 L 201.796875 62.113281 C 198.761719 68.671875 191.257812 77.949219 176.503906 84.964844 C 176.558594 85.449219 176.585938 85.929688 176.585938 86.417969 C 176.585938 92.789062 171.449219 97.925781 165.109375 97.925781 C 158.734375 97.925781 153.601562 92.789062 153.601562 86.417969 C 153.601562 80.074219 158.734375 74.910156 165.109375 74.910156 C 167.957031 74.910156 170.566406 75.960938 172.550781 77.679688 C 185.214844 72.648438 198.550781 58.027344 198.550781 43.621094 C 198.550781 30.605469 188.226562 20.019531 175.296875 19.5625 C 175.160156 24.914062 172.851562 34.269531 167.5 40.3125 C 168.386719 41.953125 168.894531 43.835938 168.894531 45.824219 C 168.894531 52.167969 163.730469 57.332031 157.386719 57.332031 C 151.046875 57.332031 145.882812 52.167969 145.882812 45.824219 C 145.882812 39.480469 151.046875 34.316406 157.386719 34.316406 C 158.460938 34.316406 159.511719 34.480469 160.507812 34.746094 C 166.285156 27.378906 170.371094 17.21875 163.195312 11.4375 C 160.078125 8.914062 156.074219 7.488281 151.90625 7.433594 C 141.824219 7.269531 133.546875 15.6875 133.546875 25.769531 L 133.546875 129.621094 C 136.261719 125.617188 140 122.28125 145.136719 120.398438 C 145.652344 114.519531 150.570312 109.921875 156.589844 109.921875 Z M 156.589844 109.921875 " fill-opacity="1" fill-rule="evenodd"/></g><g clip-path="url(#53cd84f968)"><path fill="#00bf63" d="M 70.160156 9.273438 C 74.785156 4.003906 81.5625 0.644531 89.0625 0.644531 C 102.90625 0.644531 114.195312 11.964844 114.195312 25.78125 L 114.195312 201.082031 C 114.195312 214.898438 102.90625 226.214844 89.0625 226.214844 C 77.449219 226.214844 67.605469 218.203125 64.757812 207.421875 C 66.960938 203.015625 69.921875 198.285156 73.707031 194.035156 C 73.894531 193.871094 74.058594 193.710938 74.195312 193.523438 C 77.875 189.542969 82.34375 186.027344 87.71875 183.6875 C 89.171875 183.070312 89.839844 181.378906 89.222656 179.925781 C 88.578125 178.472656 86.914062 177.800781 85.460938 178.445312 C 80.753906 180.464844 76.699219 183.257812 73.203125 186.484375 C 68.660156 167.800781 80.972656 153.984375 91.1875 142.503906 C 95.085938 138.148438 98.714844 134.089844 101.21875 130.027344 C 111.644531 113.117188 96.1875 92.335938 96.136719 92.285156 C 95.21875 90.996094 93.421875 90.726562 92.132812 91.667969 C 90.867188 92.609375 90.601562 94.382812 91.515625 95.671875 C 91.566406 95.726562 104.738281 113.441406 96.351562 127.015625 C 94.148438 130.589844 90.652344 134.488281 86.914062 138.679688 C 75.136719 151.882812 60.839844 167.933594 68.609375 191.238281 C 65.136719 195.296875 62.371094 199.707031 60.195312 203.871094 C 58.367188 204.246094 56.460938 204.433594 54.519531 204.433594 C 38.523438 204.433594 25.570312 191.480469 25.570312 175.484375 C 25.570312 172.820312 25.921875 170.265625 26.589844 167.820312 C 30.675781 165.023438 35.457031 162.230469 40.808594 159.972656 C 41.050781 159.890625 41.296875 159.808594 41.507812 159.679688 C 47.476562 157.257812 54.089844 155.511719 61.1875 155.1875 C 62.773438 155.105469 63.984375 153.761719 63.929688 152.203125 C 63.847656 150.617188 62.535156 149.378906 60.945312 149.460938 C 54.871094 149.730469 49.09375 150.96875 43.769531 152.765625 C 45.757812 145.136719 52.375 130.507812 74.011719 127.765625 C 75.570312 127.578125 76.671875 126.15625 76.484375 124.566406 C 76.269531 123.007812 74.84375 121.90625 73.285156 122.09375 C 43.957031 125.804688 38.417969 148.679688 37.398438 155.234375 C 31.214844 157.980469 25.757812 161.339844 21.265625 164.621094 C 8.683594 157.71875 0.1875 144.359375 0.1875 129.007812 C 0.1875 120.972656 2.5 113.46875 6.53125 107.15625 C 9.621094 105.703125 13.707031 104.277344 18.464844 103.878906 C 17.875 110.03125 18.144531 122.859375 28.195312 132.910156 C 29.300781 134.011719 31.128906 134.011719 32.253906 132.910156 C 33.355469 131.78125 33.355469 129.957031 32.253906 128.855469 C 23.460938 120.0625 23.648438 108.695312 24.1875 103.882812 C 26.765625 104.097656 29.480469 104.660156 32.277344 105.65625 C 33.753906 106.195312 35.394531 105.386719 35.933594 103.910156 C 36.445312 102.40625 35.664062 100.761719 34.1875 100.253906 C 29.863281 98.722656 25.746094 98.078125 21.929688 98.019531 C 21.824219 98.019531 21.742188 98.019531 21.660156 98.019531 C 16.714844 97.992188 12.277344 98.933594 8.570312 100.222656 C 6.367188 95.976562 5.128906 91.167969 5.128906 86.054688 C 5.128906 69.847656 17.628906 56.566406 33.519531 55.304688 C 39.246094 61.003906 48.199219 66.136719 61.585938 64.742188 C 63.144531 64.578125 64.300781 63.152344 64.140625 61.59375 C 63.976562 60.007812 62.554688 58.878906 60.992188 59.039062 C 48.820312 60.304688 40.992188 55.140625 36.285156 49.925781 C 35.882812 47.878906 35.640625 45.785156 35.640625 43.632812 C 35.640625 27.210938 48.46875 13.796875 64.648438 12.824219 C 65.15625 18.148438 66.152344 22.929688 67.441406 27.339844 C 62.496094 28.496094 53.625 32.015625 47.578125 42.742188 C 46.796875 44.140625 47.285156 45.890625 48.679688 46.640625 C 50.050781 47.421875 51.796875 46.9375 52.578125 45.570312 C 57.898438 36.132812 65.589844 33.5 69.21875 32.773438 C 71.128906 37.960938 73.332031 42.636719 75.425781 47.046875 C 76.851562 50.03125 78.222656 52.933594 79.355469 55.652344 C 82.523438 63.394531 84.4375 70.515625 83.171875 76.996094 C 76.902344 76.914062 59.917969 77.828125 49.644531 88.792969 C 46.582031 88.203125 39 85.625 33.085938 73.847656 C 32.386719 72.421875 30.664062 71.859375 29.269531 72.558594 C 27.84375 73.285156 27.28125 74.976562 27.980469 76.402344 C 33.652344 87.746094 41.128906 92.046875 45.992188 93.660156 C 42.769531 99.089844 40.964844 106.238281 41.585938 115.703125 C 41.691406 117.289062 43.0625 118.496094 44.652344 118.390625 C 46.238281 118.285156 47.417969 116.914062 47.3125 115.328125 C 45.378906 86.480469 70.996094 82.984375 81.160156 82.746094 C 78.28125 88.148438 72.582031 93.308594 62.878906 98.390625 C 61.484375 99.117188 60.945312 100.835938 61.671875 102.234375 C 62.398438 103.632812 64.117188 104.199219 65.542969 103.445312 C 78.820312 96.507812 85.542969 89.0625 88.097656 80.96875 C 88.128906 80.863281 88.179688 80.730469 88.203125 80.59375 C 88.257812 80.429688 88.285156 80.273438 88.339844 80.109375 C 90.675781 71.667969 88.527344 62.902344 84.65625 53.464844 C 83.449219 50.484375 82.046875 47.605469 80.625 44.597656 C 76.078125 35.023438 70.96875 24.246094 70.160156 9.273438 Z M 70.160156 9.273438 " fill-opacity="1" fill-rule="evenodd"/></g><g fill="#ffffff" fill-opacity="1"><g transform="translate(115.981325, 103.324893)"><g><path d="M 1.8125 -2.21875 C 1.8125 -3.082031 2.039062 -3.734375 2.5 -4.171875 C 2.96875 -4.617188 3.644531 -4.84375 4.53125 -4.84375 C 5.382812 -4.84375 6.046875 -4.613281 6.515625 -4.15625 C 6.984375 -3.707031 7.21875 -3.0625 7.21875 -2.21875 C 7.21875 -1.394531 6.976562 -0.75 6.5 -0.28125 C 6.03125 0.1875 5.375 0.421875 4.53125 0.421875 C 3.664062 0.421875 2.992188 0.191406 2.515625 -0.265625 C 2.046875 -0.722656 1.8125 -1.375 1.8125 -2.21875 Z M 1.8125 -2.21875 "/></g></g></g></svg>